<?xml version="1.0" encoding="UTF-8" standalone="no"?>
<!-- Created with Inkscape (http://www.inkscape.org/) -->

<svg
   width="120"
   height="120"
   viewBox="0 0 120 120"
   version="1.1"
   id="svg1"
   sodipodi:docname="moon.svg"
   inkscape:version="1.4.1 (93de688d07, 2025-03-30)"
   xmlns:inkscape="http://www.inkscape.org/namespaces/inkscape"
   xmlns:sodipodi="http://sodipodi.sourceforge.net/DTD/sodipodi-0.dtd"
   xmlns="http://www.w3.org/2000/svg"
   xmlns:svg="http://www.w3.org/2000/svg">
  <sodipodi:namedview
     id="namedview1"
     pagecolor="#ffffff"
     bordercolor="#000000"
     borderopacity="0.25"
     inkscape:showpageshadow="2"
     inkscape:pageopacity="0.0"
     inkscape:pagecheckerboard="0"
     inkscape:deskcolor="#d1d1d1"
     inkscape:document-units="px"
     showguides="true"
     inkscape:zoom="7.8"
     inkscape:cx="63.333333"
     inkscape:cy="77.820513"
     inkscape:window-width="3440"
     inkscape:window-height="1440"
     inkscape:window-x="0"
     inkscape:window-y="0"
     inkscape:window-maximized="1"
     inkscape:current-layer="layer1"
     showgrid="false">
    <sodipodi:guide
       position="47.672253,57.002143"
       orientation="0,-1"
       id="guide1"
       inkscape:locked="false" />
    <inkscape:grid
       id="grid4"
       units="px"
       originx="0"
       originy="0"
       spacingx="1"
       spacingy="1"
       empcolor="#0099e5"
       empopacity="0.30196078"
       color="#0099e5"
       opacity="0.14901961"
       empspacing="5"
       enabled="true"
       visible="false" />
  </sodipodi:namedview>
  <defs
     id="defs1">
    <filter
       inkscape:collect="always"
       style="color-interpolation-filters:sRGB"
       id="filter1"
       x="-0.028388151"
       y="-0.021611931"
       width="1.0567763"
       height="1.0432239">
      <feGaussianBlur
         inkscape:collect="always"
         stdDeviation="0.81160822"
         id="feGaussianBlur1" />
    </filter>
  </defs>
  <g
     inkscape:label="Calque 1"
     inkscape:groupmode="layer"
     id="layer1">
    <g
       inkscape:groupmode="layer"
       id="layer2"
       inkscape:label="bg">
      <path
         id="rect5"
         style="fill:#b3b3b3;stroke-width:5;stroke-linecap:round;stroke-linejoin:round"
         d="m 12.308328,55.528123 c 5.245901,0.0038 10.492038,-0.0075 15.737791,0.0057 2.16766,0.05854 4.069816,1.960693 4.128354,4.128354 0.163753,2.164825 -1.53425,4.255004 -3.687769,4.533898 -1.43632,0.104224 -2.881935,0.02557 -4.32225,0.05005 -4.064053,-0.0083 -8.128924,0.01675 -12.192462,-0.01266 C 9.8062643,64.11948 7.9536563,62.16865 7.9507713,60 c -0.108617,-2.167471 1.642004,-4.21273 3.8008937,-4.436927 0.184574,-0.02333 0.370624,-0.0349 0.556663,-0.03489 z" />
      <path
         id="path5"
         style="fill:#b3b3b3;stroke-width:5;stroke-linecap:round;stroke-linejoin:round"
         d="m 88.621442,54.279855 c 5.2459,0.0038 10.49203,-0.0075 15.737788,0.0057 2.16766,0.05854 4.06981,1.960693 4.12835,4.128354 0.16375,2.164825 -1.53425,4.255004 -3.68777,4.533898 -1.43632,0.104224 -2.88193,0.02557 -4.32225,0.05005 -4.064048,-0.0083 -8.128918,0.01675 -12.192458,-0.01266 -2.16573,-0.113985 -4.01834,-2.064815 -4.02122,-4.233465 -0.10862,-2.167471 1.642,-4.21273 3.80089,-4.436927 0.18458,-0.02333 0.37063,-0.0349 0.55667,-0.03489 z" />
      <path
         id="path6"
         style="fill:#b3b3b3;stroke-width:5;stroke-linecap:round;stroke-linejoin:round"
         d="m 53.572973,30.090473 c 0.004,-5.2459 -0.008,-10.492031 0.006,-15.737791 0.0585,-2.16766 1.9607,-4.06981 4.12836,-4.12835 2.16482,-0.16375 4.255,1.53425 4.53389,3.68777 0.10423,1.43632 0.0256,2.88193 0.05,4.32225 -0.008,4.064051 0.0168,8.128921 -0.0127,12.192461 -0.11398,2.16573 -2.06481,4.01834 -4.23346,4.02122 -2.16747,0.10862 -4.21273,-1.642 -4.43693,-3.80089 -0.0233,-0.18458 -0.0349,-0.37063 -0.0349,-0.55667 z" />
      <path
         id="path7"
         style="fill:#b3b3b3;stroke-width:5;stroke-linecap:round;stroke-linejoin:round"
         d="m 53.43798,97.867719 c 0.004,-5.2459 -0.008,-10.49203 0.006,-15.73779 0.0585,-2.16766 1.9607,-4.069811 4.12836,-4.12835 2.16482,-0.163751 4.255,1.53425 4.53389,3.68777 0.10423,1.43632 0.0256,2.88193 0.05,4.32225 -0.008,4.06405 0.0168,8.12892 -0.0127,12.19246 -0.11398,2.165731 -2.06481,4.018341 -4.23346,4.021221 -2.16747,0.10862 -4.21273,-1.642 -4.43693,-3.800891 -0.0233,-0.18458 -0.0349,-0.37063 -0.0349,-0.55667 z" />
      <path
         id="path8"
         style="fill:#b3b3b3;stroke-width:5;stroke-linecap:round;stroke-linejoin:round"
         d="m 30.282869,84.570645 c 3.71224,-3.70658 7.413329,-7.42464 11.132541,-11.12406 1.574133,-1.491403 4.264215,-1.491368 5.838376,1e-5 1.646548,1.41497 1.92386,4.09362 0.598297,5.81359 -0.94193,1.08934 -2.01973,2.05594 -3.020937,3.09165 -2.879374,2.86806 -5.736135,5.75989 -8.630352,8.61239 -1.611998,1.45081 -4.301436,1.38135 -5.83694,-0.15008 -1.609438,-1.45582 -1.81778,-4.13992 -0.449748,-5.82501 0.114042,-0.147 0.237397,-0.28676 0.368947,-0.41831 z" />
      <path
         id="path9"
         style="fill:#b3b3b3;stroke-width:5;stroke-linecap:round;stroke-linejoin:round"
         d="m 79.155403,42.242598 c 3.71224,-3.70658 7.41333,-7.42464 11.13254,-11.12406 1.57414,-1.491403 4.26422,-1.491368 5.83838,10e-6 1.64655,1.41497 1.92386,4.09362 0.5983,5.81359 -0.94193,1.08934 -2.01973,2.05594 -3.02094,3.09165 -2.87938,2.86806 -5.73614,5.75989 -8.63035,8.61239 -1.612,1.45081 -4.30144,1.38135 -5.83694,-0.15008 -1.60944,-1.45582 -1.817784,-4.13992 -0.44975,-5.82501 0.11404,-0.147 0.2374,-0.28676 0.36895,-0.41831 z" />
      <path
         id="path10"
         style="fill:#b3b3b3;stroke-width:5;stroke-linecap:round;stroke-linejoin:round"
         d="m 37.932584,41.224676 c -3.706579,-3.71224 -7.424639,-7.41333 -11.124059,-11.132541 -1.491403,-1.57414 -1.491368,-4.26422 10e-6,-5.83838 1.41497,-1.64655 4.09362,-1.92386 5.81359,-0.5983 1.08934,0.94193 2.05594,2.01973 3.091649,3.02094 2.86806,2.87938 5.75989,5.73614 8.61239,8.630351 1.45081,1.612 1.38135,4.30144 -0.15008,5.83694 -1.45582,1.60944 -4.13992,1.817784 -5.82501,0.44975 -0.147,-0.11404 -0.28676,-0.2374 -0.41831,-0.36895 z" />
      <path
         id="path11"
         style="fill:#b3b3b3;stroke-width:5;stroke-linecap:round;stroke-linejoin:round"
         d="m 83.894743,93.783677 c -3.70658,-3.71224 -7.42464,-7.41333 -11.12406,-11.13255 -1.491407,-1.57414 -1.491372,-4.26422 10e-6,-5.83838 1.41497,-1.64655 4.09362,-1.923855 5.81359,-0.5983 1.08934,0.94193 2.05594,2.01973 3.09165,3.02094 2.86806,2.87938 5.75989,5.73614 8.61239,8.63036 1.45081,1.612 1.38135,4.30144 -0.15008,5.83694 -1.45582,1.60944 -4.13992,1.81778 -5.82501,0.44975 -0.147,-0.11404 -0.28676,-0.2374 -0.41831,-0.36895 z" />
    </g>
    <path
       id="path3"
       style="fill:#c8beb7;stroke-width:5;stroke-linecap:round;stroke-linejoin:round"
       d="M 112.04923,60 A 52.049229,52.049229 0 0 1 60,112.04923 52.049229,52.049229 0 0 1 7.9507713,60 52.049229,52.049229 0 0 1 60,7.9507713 52.049229,52.049229 0 0 1 112.04923,60 Z" />
    <path
       id="path3-5"
       style="fill:#1a1a1a;stroke-width:5;stroke-linecap:round;stroke-linejoin:round;filter:url(#filter1)"
       d="M 60 7.9511719 A 52.049229 52.049229 0 0 0 43.433594 46.03125 A 52.049229 52.049229 0 0 0 95.482422 98.080078 A 52.049229 52.049229 0 0 0 112.04883 60 A 52.049229 52.049229 0 0 0 60 7.9511719 z " />
    <path
       id="path4"
       style="fill:#b3b3b3;stroke-width:5;stroke-linecap:round;stroke-linejoin:round"
       transform="rotate(-59.672659)"
       d="m -18.418257,39.035416 a 3.7999034,2.9889684 0 0 1 -3.799904,2.988968 3.7999034,2.9889684 0 0 1 -3.799903,-2.988968 3.7999034,2.9889684 0 0 1 3.799903,-2.988969 3.7999034,2.9889684 0 0 1 3.799904,2.988969 z" />
    <path
       id="path4-1"
       style="fill:#cccccc;stroke-width:5;stroke-linecap:round;stroke-linejoin:round"
       transform="rotate(-166.95615)"
       d="m -91.808495,-78.54129 a 3.7999034,2.9889684 0 0 1 -3.799903,2.988968 3.7999034,2.9889684 0 0 1 -3.799904,-2.988968 3.7999034,2.9889684 0 0 1 3.799904,-2.988969 3.7999034,2.9889684 0 0 1 3.799903,2.988969 z" />
    <path
       id="ellipse4"
       style="fill:#999999;stroke-width:12.1827;stroke-linecap:round;stroke-linejoin:round"
       transform="rotate(-59.672659)"
       d="m -43.870599,60.014427 a 9.2585936,7.282722 0 0 1 -9.258593,7.282722 9.2585936,7.282722 0 0 1 -9.258594,-7.282722 9.2585936,7.282722 0 0 1 9.258594,-7.282722 9.2585936,7.282722 0 0 1 9.258593,7.282722 z" />
    <path
       id="ellipse5"
       style="fill:#b3b3b3;stroke-width:8.49337;stroke-linecap:round;stroke-linejoin:round"
       inkscape:transform-center-x="-28.026693"
       inkscape:transform-center-y="-6.7756834"
       transform="rotate(-166.95615)"
       d="m -56.683435,-85.111382 a 6.4547977,5.0772834 0 0 1 -6.454798,5.077284 6.4547977,5.0772834 0 0 1 -6.454798,-5.077284 6.4547977,5.0772834 0 0 1 6.454798,-5.077283 6.4547977,5.0772834 0 0 1 6.454798,5.077283 z" />
  </g>
</svg>
