<?xml version="1.0" encoding="UTF-8" standalone="no"?>
<!-- Created with Inkscape (http://www.inkscape.org/) -->

<svg
   width="120"
   height="120"
   viewBox="0 0 120 120"
   version="1.1"
   id="svg1"
   sodipodi:docname="son.svg"
   inkscape:version="1.4.1 (93de688d07, 2025-03-30)"
   xmlns:inkscape="http://www.inkscape.org/namespaces/inkscape"
   xmlns:sodipodi="http://sodipodi.sourceforge.net/DTD/sodipodi-0.dtd"
   xmlns="http://www.w3.org/2000/svg"
   xmlns:svg="http://www.w3.org/2000/svg">
  <sodipodi:namedview
     id="namedview1"
     pagecolor="#ffffff"
     bordercolor="#000000"
     borderopacity="0.25"
     inkscape:showpageshadow="2"
     inkscape:pageopacity="0.0"
     inkscape:pagecheckerboard="0"
     inkscape:deskcolor="#d1d1d1"
     inkscape:document-units="px"
     showguides="true"
     inkscape:zoom="7.8"
     inkscape:cx="59.358974"
     inkscape:cy="70.25641"
     inkscape:window-width="1699"
     inkscape:window-height="1382"
     inkscape:window-x="0"
     inkscape:window-y="0"
     inkscape:window-maximized="1"
     inkscape:current-layer="layer1"
     showgrid="false">
    <sodipodi:guide
       position="47.672253,57.002143"
       orientation="0,-1"
       id="guide1"
       inkscape:locked="false" />
    <inkscape:grid
       id="grid4"
       units="px"
       originx="0"
       originy="0"
       spacingx="1"
       spacingy="1"
       empcolor="#0099e5"
       empopacity="0.30196078"
       color="#0099e5"
       opacity="0.14901961"
       empspacing="5"
       enabled="true"
       visible="false" />
  </sodipodi:namedview>
  <defs
     id="defs1">
    <filter
       inkscape:collect="always"
       style="color-interpolation-filters:sRGB"
       id="filter1"
       x="-0.0034652689"
       y="-0.002638113"
       width="1.0069305"
       height="1.0052762">
      <feGaussianBlur
         inkscape:collect="always"
         stdDeviation="0.092726237"
         id="feGaussianBlur1" />
    </filter>
  </defs>
  <g
     inkscape:label="Calque 1"
     inkscape:groupmode="layer"
     id="layer1">
    <g
       inkscape:groupmode="layer"
       id="layer2"
       inkscape:label="bg">
      <path
         id="rect5"
         style="fill:#ffb380;stroke-width:5;stroke-linecap:round;stroke-linejoin:round"
         d="m 4.3575567,57.066585 c 5.245901,0.0038 10.4920383,-0.0075 15.7377913,0.0057 2.16766,0.05854 4.069816,1.960693 4.128354,4.128354 0.163753,2.164825 -1.53425,4.255004 -3.687769,4.533898 -1.43632,0.104224 -2.881935,0.02557 -4.32225,0.05005 -4.064053,-0.0083 -8.1289243,0.01675 -12.1924623,-0.01266 C 1.855493,65.657942 0.002885,63.707112 0,61.538462 c -0.108617,-2.167471 1.642004,-4.21273 3.8008937,-4.436927 0.184574,-0.02333 0.370624,-0.0349 0.556663,-0.03489 z" />
      <path
         id="path5"
         style="fill:#ffb380;stroke-width:5;stroke-linecap:round;stroke-linejoin:round"
         d="m 100.04329,55.228388 c 5.2459,0.0038 10.49203,-0.0075 15.73779,0.0057 2.16766,0.05854 4.06981,1.960693 4.12835,4.128354 0.16375,2.164825 -1.53425,4.255004 -3.68777,4.533898 -1.43632,0.104224 -2.88193,0.02557 -4.32225,0.05005 -4.06405,-0.0083 -8.12892,0.01675 -12.192462,-0.01266 -2.16573,-0.113985 -4.01834,-2.064815 -4.02122,-4.233465 -0.10862,-2.167471 1.642,-4.21273 3.80089,-4.436927 0.18458,-0.02333 0.37063,-0.0349 0.556672,-0.03489 z" />
      <path
         id="path6"
         style="fill:#ffb380;stroke-width:5;stroke-linecap:round;stroke-linejoin:round"
         d="m 55.327696,19.964382 c 0.004,-5.2459 -0.008,-10.4920306 0.006,-15.7377906 0.0585,-2.16766 1.9607,-4.06981004 4.12836,-4.12835004 2.16482,-0.16375 4.255,1.53425004 4.53389,3.68777004 0.10423,1.43632 0.0256,2.88193 0.05,4.32225 -0.008,4.0640506 0.0168,8.1289206 -0.0127,12.1924606 -0.11398,2.16573 -2.06481,4.01834 -4.23346,4.02122 -2.16747,0.10862 -4.21273,-1.642 -4.43693,-3.80089 -0.0233,-0.18458 -0.0349,-0.37063 -0.0349,-0.55667 z" />
      <path
         id="path7"
         style="fill:#ffb380;stroke-width:5;stroke-linecap:round;stroke-linejoin:round"
         d="m 56.002083,115.64244 c 0.004,-5.2459 -0.008,-10.49203 0.006,-15.737791 0.0585,-2.16766 1.9607,-4.069811 4.12836,-4.12835 2.16482,-0.163751 4.255,1.53425 4.53389,3.68777 0.10423,1.436321 0.0256,2.881931 0.05,4.322251 -0.008,4.06405 0.0168,8.12892 -0.0127,12.19246 -0.11398,2.16573 -2.06481,4.01834 -4.23346,4.02122 -2.16747,0.10862 -4.21273,-1.642 -4.43693,-3.80089 -0.0233,-0.18458 -0.0349,-0.37063 -0.0349,-0.55667 z" />
      <path
         id="path8"
         style="fill:#ffb380;stroke-width:3.88719;stroke-linecap:round;stroke-linejoin:round"
         d="m 14.344261,100.86335 c 2.886034,-2.881633 5.763398,-5.772191 8.654852,-8.648258 1.223789,-1.159476 3.315159,-1.159448 4.53897,8e-6 1.280088,1.10005 1.49568,3.182533 0.465139,4.519701 -0.732292,0.846894 -1.570214,1.598364 -2.348589,2.403564 -2.238533,2.229735 -4.459485,4.477955 -6.709557,6.695595 -1.253227,1.12791 -3.344096,1.07391 -4.537854,-0.11668 -1.251237,-1.13181 -1.41321,-3.21853 -0.349651,-4.52858 0.08866,-0.11428 0.184562,-0.22294 0.286834,-0.32521 z" />
      <path
         id="path9"
         style="fill:#ffb380;stroke-width:3.88719;stroke-linecap:round;stroke-linejoin:round"
         d="m 92.334623,22.871621 c 2.886034,-2.881633 5.763399,-5.772192 8.654847,-8.648258 1.2238,-1.159472 3.31517,-1.159445 4.53898,8e-6 1.28009,1.10005 1.49568,3.182532 0.46514,4.519701 -0.73229,0.846893 -1.57021,1.598364 -2.34859,2.403563 -2.23854,2.229737 -4.459491,4.477953 -6.709558,6.695593 -1.253229,1.127913 -3.344099,1.073912 -4.537854,-0.116678 -1.251238,-1.131809 -1.413215,-3.218528 -0.349652,-4.52858 0.08866,-0.114283 0.184563,-0.222937 0.286835,-0.325209 z" />
      <path
         id="path10"
         style="fill:#ffb380;stroke-width:3.88719;stroke-linecap:round;stroke-linejoin:round"
         d="m 22.87162,27.665381 c -2.881632,-2.886034 -5.772191,-5.763399 -8.648257,-8.654852 -1.159472,-1.223795 -1.159445,-3.315163 8e-6,-4.538973 1.10005,-1.28009 3.182532,-1.495681 4.519701,-0.465141 0.846893,0.732291 1.598364,1.570213 2.403563,2.348591 2.229736,2.238537 4.477952,4.459489 6.695592,6.709556 1.127913,1.253229 1.073913,3.344099 -0.116678,4.537854 -1.131809,1.251239 -3.218528,1.413213 -4.528579,0.349653 -0.114284,-0.08866 -0.222938,-0.184564 -0.32521,-0.286836 z" />
      <path
         id="path11"
         style="fill:#ffb380;stroke-width:3.88719;stroke-linecap:round;stroke-linejoin:round"
         d="m 100.86335,105.65575 c -2.881633,-2.88604 -5.772191,-5.763403 -8.648258,-8.654863 -1.159481,-1.223795 -1.15945,-3.315163 8e-6,-4.538974 1.10005,-1.280089 3.182533,-1.495678 4.519701,-0.46514 0.846894,0.732291 1.598364,1.570213 2.403564,2.348591 2.229735,2.238537 4.477955,4.459488 6.695595,6.709566 1.12791,1.25323 1.07391,3.3441 -0.11668,4.53785 -1.13181,1.25124 -3.21853,1.41321 -4.52858,0.34965 -0.11428,-0.0887 -0.22294,-0.18456 -0.32521,-0.28683 z" />
    </g>
    <path
       id="path3"
       style="fill:#ffdd55;stroke-width:4.67979;stroke-linecap:round;stroke-linejoin:round"
       d="M 108.7159,60 A 48.715896,48.715896 0 0 1 60,108.7159 48.715896,48.715896 0 0 1 11.284105,60 48.715896,48.715896 0 0 1 60,11.284105 48.715896,48.715896 0 0 1 108.7159,60 Z" />
    <path
       id="path3-5"
       style="fill:#ffdd55;stroke-width:4.67979;stroke-linecap:round;stroke-linejoin:round;opacity:0;filter:url(#filter1)"
       d="M 60,11.28448 A 48.715896,48.715896 0 0 0 44.494539,46.925836 48.715896,48.715896 0 0 0 93.210059,95.641356 48.715896,48.715896 0 0 0 108.71552,60 48.715896,48.715896 0 0 0 60,11.28448 Z" />
    <path
       id="path4"
       style="fill:#ffdd55;stroke-width:4.67979;stroke-linecap:round;stroke-linejoin:round;opacity:0"
       d="m 26.673805,37.170421 a 2.7975491,3.5565502 30.327341 0 1 0.618874,4.482446 2.7975491,3.5565502 30.327341 0 1 -4.21056,1.65726 2.7975491,3.5565502 30.327341 0 1 -0.618875,-4.482446 2.7975491,3.5565502 30.327341 0 1 4.210561,-1.65726 z" />
    <path
       id="path4-1"
       style="fill:#ffdd55;stroke-width:4.67979;stroke-linecap:round;stroke-linejoin:round;opacity:0"
       d="m 70.962977,94.850971 a 3.5565502,2.7975491 13.04385 0 1 4.09618,-1.922663 3.5565502,2.7975491 13.04385 0 1 2.833386,3.528067 3.5565502,2.7975491 13.04385 0 1 -4.096181,1.922664 3.5565502,2.7975491 13.04385 0 1 -2.833385,-3.528068 z" />
    <path
       id="ellipse4"
       style="fill:#ffdd55;stroke-width:11.4025;stroke-linecap:round;stroke-linejoin:round;opacity:0"
       d="M 31.593423,67.647501 A 6.8163224,8.6656554 30.327341 0 1 33.101332,78.569132 6.8163224,8.6656554 30.327341 0 1 22.842158,82.607103 6.8163224,8.6656554 30.327341 0 1 21.33425,71.68547 6.8163224,8.6656554 30.327341 0 1 31.593423,67.647501 Z" />
    <path
       id="ellipse5"
       style="fill:#ffdd55;stroke-width:7.94944;stroke-linecap:round;stroke-linejoin:round;opacity:0"
       inkscape:transform-center-x="-26.231809"
       inkscape:transform-center-y="-6.3417557"
       d="m 37.547779,93.421724 a 6.04142,4.7521243 13.04385 0 1 6.958076,-3.26598 6.04142,4.7521243 13.04385 0 1 4.812998,5.993037 6.04142,4.7521243 13.04385 0 1 -6.958076,3.265979 6.04142,4.7521243 13.04385 0 1 -4.812998,-5.993036 z" />
  </g>
</svg>
